# AST/ASF file generated using VICON BodyLanguage
# -----------------------------------------------
:version 1.10
:name VICON
:units
  mass 1.0
  length 0.45
  angle deg
:documentation
   .ast/.asf automatically generated from VICON data using
   VICON BodyBuilder and BodyLanguage model FoxedUp or BRILLIANT.MOD
:root
   order TX TY TZ RX RY RZ
   axis XYZ
   position 0 0 0  
   orientation 0 0 0 
:bonedata
  begin
     id 1 
     name lhipjoint
     direction 0.671379 -0.66392 0.329334 
     length 2.38647 
     axis 0 0 0  XYZ
  end
  begin
     id 2 
     name lfemur
     direction 0.34202 -0.939693 0  
     length 6.48179  
     axis 0 0 20  XYZ
    dof rx ry rz
    limits (-160.0 20.0)
           (-70.0 70.0)
           (-60.0 70.0)
  end
  begin
     id 3 
     name ltibia
     direction 0.34202 -0.939693 0   
     length 6.86524   
     axis 0 0 20   XYZ
    dof rx
    limits (-10.0 170.0)
  end
  begin
     id 4 
     name lfoot
     direction 0.204886 -0.562919 0.800715   
     length 1.73031   
     axis -90 7.62852e-016 20   XYZ
    dof rx rz
    limits (-45.0 90.0)
           (-70.0 20.0)
  end
  begin
     id 5 
     name ltoes
     direction 1.53548e-011 -4.21841e-011 1   
     length 0.828161   
     axis -90 7.62852e-016 20   XYZ
    dof rx
    limits (-90.0 20.0)
  end
  begin
     id 6 
     name rhipjoint
     direction -0.662732 -0.670855 0.332775   
     length 2.3618  
     axis 0 0 0  XYZ 
  end
  begin
     id 7 
     name rfemur
     direction -0.34202 -0.939693 0   
     length 6.3025   
     axis 0 0 -20   XYZ
    dof rx ry rz
    limits (-160.0 20.0)
           (-70.0 70.0)
           (-70.0 60.0)
  end
  begin
     id 8 
     name rtibia
     direction -0.34202 -0.939693 0   
     length 6.8732   
     axis 0 0 -20   XYZ
    dof rx
    limits (-10.0 170.0)
 end
 begin
     id 9 
     name rfoot
     direction -0.173856 -0.477665 0.861168   
     length 1.54784  
     axis -90 -7.62852e-016 -20   XYZ
    dof rx rz
    limits (-45.0 90.0)
           (-20.0 70.0)
  end
  begin
     id 10 
     name rtoes
     direction -1.53562e-011 -4.21802e-011 1   
     length 0.759618   
     axis -90 -7.62852e-016 -20   XYZ
    dof rx
    limits (-90.0 20.0)
  end
  begin
     id 11 
     name lowerback
     direction -0.0278357 0.999497 -0.0151789   
     length 1.97203   
     axis 0 0 0   XYZ
    dof rx ry rz
    limits (-20.0 45.0)
           (-30.0 30.0)
           (-30.0 30.0)
  end
  begin
     id 12 
     name upperback
     direction -0.00360622 0.997542 0.0699804   
     length 1.94709   
     axis 0 0 0   XYZ
    dof rx ry rz
    limits (-20.0 45.0)
           (-30.0 30.0)
           (-30.0 30.0)
  end
  begin
     id 13 
     name thorax
     direction 0.00907706 0.997048 0.0762461   
     length 1.95722   
     axis 0 0 0   XYZ
    dof rx ry rz
    limits (-20.0 45.0)
           (-30.0 30.0)
           (-30.0 30.0)
  end
  begin
     id 14 
     name lowerneck
     direction -0.0481835 0.99872 -0.0153927   
     length 1.63078   
     axis 0 0 0   XYZ
    dof rx ry rz
    limits (-20.0 45.0)
           (-30.0 30.0)
           (-30.0 30.0)
  end
  begin
     id 15 
     name upperneck
     direction 0.0859716 0.979226 -0.183644   
     length 1.62591   
     axis 0 0 0   XYZ
    dof rx ry rz
    limits (-20.0 45.0)
           (-30.0 30.0)
           (-30.0 30.0)
  end
  begin
     id 16
     name head
     direction 0.0324821 0.997629 -0.0606773  
     length 1.64811  
     axis 0 0 0   XYZ
    dof rx ry rz
    limits (-20.0 45.0)
           (-30.0 30.0)
           (-30.0 30.0)
  end
  begin
     id 17 
     name lclavicle
     direction 0.939609 0.311019 0.142835  
     length 3.70647  
     axis 0 0 0   XYZ
    dof ry rz
    limits (-20.0 10.0)
           (0.0 20.0)
  end
  begin
     id 18 
     name lhumerus
     direction 1 -4.48963e-011 -1.59838e-027   
     length 4.59207   
     axis 180 -30 -90   XYZ
    dof rx ry rz
    limits (-60.0 90.0)
           (-90.0 90.0)
           (-90.0 90.0)
  end
  begin
     id 19
     name lradius
     direction 1 -4.48957e-011 -1.3483e-026   
     length 2.98109   
     axis 180 -30 -90   XYZ
    dof rx
    limits (-10.0 170.0)
  end
  begin
     id 20
     name lwrist
     direction 1 -4.48954e-011 -3.11579e-026   
     length 1.49055   
     axis 2.00652e-014 90 90   XYZ
    dof ry
    limits (-180.0 0.0)
 end
  begin
     id 21 
     name lhand
     direction 1 -4.4911e-011 -6.23158e-026   
     length 0.480203   
     axis 3.97628e-014 90 90   XYZ
    dof rx rz
    limits (-90.0 90.0)
           (-45.0 45.0)
  end
  begin
     id 22 
     name lfingers
     direction 1 -4.48893e-011 -1.24632e-025   
     length 0.387152   
     axis 7.95256e-014 90 90   XYZ
    dof rx
    limits (0.0 90.0)
  end
  begin
     id 23
     name lthumb
     direction 0.707107 -6.35013e-011 0.707107   
     length 0.555875   
     axis -90 45 2.85299e-015   XYZ
    dof rx rz
    limits (-45.0 45.0)
           (-45.0 45.0)
  end
  begin
     id 24 
     name rclavicle
     direction -0.950396 0.30392 0.0661859   
     length 3.70894  
     axis 0 0 0   XYZ 
    dof ry rz
    limits (-10.0 20.0)
           (-20.0 0.0)
  end
  begin
     id 25 
     name rhumerus
     direction -1 -4.48957e-011 -2.96677e-027  
     length 4.76508   
     axis 180 30 90   XYZ
    dof rx ry rz
    limits (-90.0 60.0)
           (-90.0 90.0)
           (-90.0 90.0)
  end
  begin
     id 26 
     name rradius
     direction -1 -4.48974e-011 -1.44501e-026   
     length 2.78902   
     axis 180 30 90   XYZ
    dof rx
    limits (-10.0 170.0)
  end
  begin
     id 27 
     name rwrist
     direction -1 -4.48978e-011 -3.11579e-026   
     length 1.39451   
     axis 2.00652e-014 -90 -90   XYZ
    dof ry
    limits (-180.0 0.0)
  end
  begin
     id 28
     name rhand
     direction -1 -4.48956e-011 -6.23158e-026   
     length 0.721303   
     axis 3.97628e-014 -90 -90   XYZ
    dof rx rz
    limits (-90.0 90.0)
           (-45.0 45.0)
  end
  begin
     id 29
     name rfingers
     direction -1 -4.4899e-011 -1.24632e-025   
     length 0.581533   
     axis 7.95256e-014 -90 -90   XYZ
    dof rx
    limits (0.0 90.0)
  end
  begin
     id 30
     name rthumb
     direction -0.707107 -6.34911e-011 0.707107   
     length 0.834968   
     axis -90 -45 -2.85299e-015   XYZ
    dof rx rz
    limits (-45.0 45.0)
           (-45.0 45.0)
  end
:hierarchy
  begin
    root lhipjoint rhipjoint lowerback
    lhipjoint lfemur
    lfemur ltibia
    ltibia lfoot
    lfoot ltoes
    rhipjoint rfemur
    rfemur rtibia
    rtibia rfoot
    rfoot rtoes
    lowerback upperback
    upperback thorax
    thorax lowerneck lclavicle rclavicle
    lowerneck upperneck
    upperneck head
    lclavicle lhumerus
    lhumerus lradius
    lradius lwrist
    lwrist lhand lthumb
    lhand lfingers
    rclavicle rhumerus
    rhumerus rradius
    rradius rwrist
    rwrist rhand rthumb
    rhand rfingers
  end

#!OML:ASF I:\salsa\salsa 7_09\Patient 1\Session 1\dancerfemale.ASF
:FULLY-SPECIFIED
:DEGREES
526
root 17.4696 15.802 -2.68866 -13.9164 -54.7532 17.1119
lowerback 14.3806 5.15315 0.694752
upperback -5.36967 6.22887 -6.34041
thorax -13.2748 2.4721 -9.10202
lowerneck 13.1407 -15.7497 -20.3857
upperneck -1.77845 -23.9704 20.0831
head 2.31294 -12.6054 8.74129
rclavicle -4.3186e-014 5.36719e-014
rhumerus -24.7376 -27.6293 -73.7814
rradius 49.4654
rwrist -7.09273
rhand -8.18384 67.1545
rfingers 7.12502
rthumb 17.7319 37.943
lclavicle -4.3186e-014 5.36719e-014
lhumerus 5.68451 -22.8253 92.1576
lradius 97.2239
lwrist 17.0629
lhand 7.94909 43.2926
lfingers 7.12502
lthumb 33.1786 70.255
rfemur -33.4055 -10.864 2.67097
rtibia 45.3365
rfoot -13.6642 -14.824
rtoes -12.0091
lfemur -6.86253 -11.5457 -37.1206
ltibia 27.694
lfoot -18.2951 -17.1516
ltoes -0.941171
527
root 17.2975 15.8425 -2.69456 -13.7331 -53.077 17.0725
lowerback 14.1313 4.94777 0.221637
upperback -5.2792 5.83988 -6.50221
thorax -13.1089 2.33041 -8.88457
lowerneck 13.433 -16.0334 -20.3431
upperneck -1.81245 -24.4009 20.1153
head 2.34353 -12.835 8.71729
rclavicle -3.03147e-015 -9.54166e-015
rhumerus -25.007 -27.8729 -73.1947
rradius 51.4659
rwrist -8.21616
rhand -7.94783 65.2823
rfingers 7.12502
rthumb 17.959 36.0915
lclavicle -3.03147e-015 -9.54166e-015
lhumerus 5.85137 -23.3279 92.4316
lradius 97.2015
lwrist 17.2486
lhand 8.37098 43.7411
lfingers 7.12502
lthumb 33.5797 70.6172
rfemur -32.1187 -9.33019 0.842654
rtibia 41.1269
rfoot -12.0568 -15.6986
rtoes -11.1627
lfemur -5.34914 -11.7405 -37.1197
ltibia 25.8936
lfoot -17.5981 -18.6575
ltoes -0.565477
528
root 17.1179 15.8513 -2.70263 -13.4418 -51.5989 16.7744
lowerback 13.9171 4.66877 -0.0669966
upperback -5.13538 5.40645 -6.5723
thorax -12.8952 2.16021 -8.65566
lowerneck 13.7583 -16.1731 -20.3732
upperneck -2.04302 -24.6319 20.304
head 2.30199 -12.9721 8.78787
rclavicle -6.42571e-014 2.42517e-014
rhumerus -24.9245 -28.537 -72.8907
rradius 52.9689
rwrist -8.84243
rhand -8.4153 63.7657
rfingers 7.12502
rthumb 17.5092 34.5342
lclavicle -6.42571e-014 2.42517e-014
lhumerus 6.07171 -23.51 92.534
lradius 97.2548
lwrist 17.1958
lhand 10.1126 44.8214
lfingers 7.12502
lthumb 35.2332 71.3227
rfemur -30.5876 -8.35246 -0.280597
rtibia 37.9266
rfoot -10.057 -16.267
rtoes -13.6088
lfemur -4.09211 -12.2229 -36.9436
ltibia 24.7427
lfoot -17.0859 -19.7859
ltoes 0.432491
529
root 16.9315 15.8436 -2.70876 -13.0679 -50.349 16.3626
lowerback 13.7178 4.36609 -0.252669
upperback -5.03746 4.97614 -6.53579
thorax -12.7399 1.98443 -8.37338
lowerneck 13.9958 -16.2231 -20.4595
upperneck -2.17298 -24.7364 20.3051
head 2.25908 -13.0346 8.81428
rclavicle 6.39093e-014 4.69132e-014
rhumerus -24.669 -28.8445 -72.7037
rradius 53.9135
rwrist -9.40187
rhand -8.07123 62.9346
rfingers 7.12502
rthumb 17.8403 33.7329
lclavicle 6.39093e-014 4.69132e-014
lhumerus 6.144 -23.3923 92.4905
lradius 97.547
lwrist 17.0837
lhand 8.73734 44.6145
lfingers 7.12502
lthumb 33.9278 71.4143
rfemur -29.4377 -6.9334 -1.27429
rtibia 35.7788
rfoot -7.31696 -16.2956
rtoes -11.5087
lfemur -3.24318 -13.292 -36.7289
ltibia 24.4343
lfoot -16.8554 -20.0956
ltoes 1.855
530
root 16.738 15.8311 -2.70941 -12.4681 -49.5603 15.7147
lowerback 13.4967 4.16295 -0.187984
upperback -5.04969 4.73989 -6.40809
thorax -12.6559 1.88042 -8.1851
lowerneck 14.1306 -16.2504 -20.3586
upperneck -2.23713 -24.7529 19.9529
head 2.16135 -13.0352 8.71628
rclavicle -1.95952e-013 1.98785e-015
rhumerus -24.5775 -28.6716 -72.5436
rradius 54.8122
rwrist -9.83572
rhand -7.94395 62.2067
rfingers 7.12502
rthumb 17.9628 33.0163
lclavicle -1.95952e-013 1.98785e-015
lhumerus 5.93719 -23.1815 92.3605
lradius 98.1855
lwrist 16.8565
lhand 8.1561 44.8076
lfingers 7.12502
lthumb 33.3754 71.7278
rfemur -28.4692 -5.44895 -1.63139
rtibia 34.7404
rfoot -5.42074 -14.7823
rtoes -7.29126
lfemur -2.88262 -14.2587 -36.2728
ltibia 25.0004
lfoot -17.3426 -19.8853
ltoes 1.7714
531
root 16.5379 15.8141 -2.70741 -11.5286 -49.2676 14.7787
lowerback 13.1444 4.0473 0.137176
upperback -5.15204 4.68002 -6.22561
thorax -12.5553 1.84233 -8.11794
lowerneck 14.0722 -16.2642 -20.0723
upperneck -2.13709 -24.7025 19.4216
head 2.08118 -12.9885 8.528
rclavicle 3.40419e-014 5.56597e-014
rhumerus -24.4474 -28.4915 -72.607
rradius 55.6358
rwrist -9.75543
rhand -8.23518 61.5054
rfingers 7.12502
rthumb 17.6825 32.2894
lclavicle 3.40419e-014 5.56597e-014
lhumerus 5.58475 -22.9232 92.0119
lradius 99.147
lwrist 16.4435
lhand 7.82229 45.0855
lfingers 7.12502
lthumb 33.058 72.0735
rfemur -27.53 -4.09684 -1.09579
rtibia 34.3997
rfoot -6.37587 -14.4884
rtoes -9.24644
lfemur -3.01149 -14.8688 -35.4594
ltibia 26.2408
lfoot -18.4532 -19.4228
ltoes 0.353401
532
root 16.3369 15.787 -2.70729 -10.3269 -49.3292 13.6265
lowerback 12.759 3.91084 0.63645
upperback -5.32483 4.62959 -5.96578
thorax -12.5067 1.79525 -8.06928
lowerneck 13.9149 -16.1892 -19.8756
upperneck -1.85557 -24.5547 18.9341
head 2.06868 -12.8919 8.35686
rclavicle -8.89561e-015 4.96962e-014
rhumerus -23.8729 -28.515 -73.0531
rradius 55.9444
rwrist -9.24653
rhand -8.38461 61.1382
rfingers 7.12502
rthumb 17.5387 31.9093
lclavicle -8.89561e-015 4.96962e-014
lhumerus 5.12046 -22.2919 91.4641
lradius 100.339
lwrist 15.9353
lhand 7.82888 45.2159
lfingers 7.12502
lthumb 33.0643 72.2025
rfemur -26.5619 -2.3622 -0.142432
rtibia 34.3918
rfoot -9.6811 -15.465
rtoes -15.8149
lfemur -3.45357 -15.6713 -34.4454
ltibia 27.9001
lfoot -19.6569 -18.4475
ltoes -1.23782
